<?xml version="1.0" standalone="no"?>
<!DOCTYPE svg PUBLIC "-//W3C//DTD SVG 20010904//EN"
 "http://www.w3.org/TR/2001/REC-SVG-20010904/DTD/svg10.dtd">
<svg version="1.0" xmlns="http://www.w3.org/2000/svg"
 width="197.000000pt" height="197.000000pt" viewBox="0 0 197.000000 197.000000"
 preserveAspectRatio="xMidYMid meet">
<metadata>
Created by potrace 1.14, written by Peter Selinger 2001-2017
</metadata>
<g transform="translate(0.000000,197.000000) scale(0.100000,-0.100000)"
fill="#000000" stroke="none">
<path d="M883 1942 c-152 -61 -205 -260 -103 -385 52 -62 113 -91 190 -91 134
0 235 94 244 227 12 185 -163 317 -331 249z"/>
<path d="M1653 1419 c-56 -10 -95 -32 -137 -75 -60 -62 -68 -106 -68 -363 0
-202 2 -231 20 -271 67 -153 256 -200 380 -94 24 20 53 55 65 78 21 39 22 52
22 296 0 243 -1 257 -22 296 -51 95 -159 151 -260 133z"/>
<path d="M185 1409 c-43 -12 -112 -73 -138 -123 -21 -39 -22 -52 -22 -296 0
-244 1 -257 22 -296 49 -92 144 -142 248 -131 98 10 173 73 205 170 17 54 18
458 0 512 -13 40 -51 99 -80 123 -56 45 -159 64 -235 41z"/>
<path d="M862 474 c-181 -90 -179 -352 3 -443 84 -42 200 -26 271 36 41 37 75
109 78 169 12 195 -180 324 -352 238z"/>
</g>
</svg>
